<svg width="960" height="540" viewBox="0 0 960 540" fill="none" xmlns="http://www.w3.org/2000/svg">
  <defs>
    <linearGradient id="bg" x1="120" y1="60" x2="820" y2="470" gradientUnits="userSpaceOnUse">
      <stop stop-color="#0EA5E9"/>
      <stop offset="1" stop-color="#1D4ED8"/>
    </linearGradient>
    <linearGradient id="card" x1="260" y1="130" x2="640" y2="410" gradientUnits="userSpaceOnUse">
      <stop stop-color="#FFFFFF" stop-opacity="0.95"/>
      <stop offset="1" stop-color="#E2E8F0" stop-opacity="0.9"/>
    </linearGradient>
  </defs>

  <rect x="30" y="30" width="900" height="480" rx="32" fill="url(#bg)"/>

  <circle cx="190" cy="150" r="46" fill="#F59E0B" fill-opacity="0.88"/>
  <circle cx="770" cy="390" r="58" fill="#22D3EE" fill-opacity="0.4"/>
  <circle cx="720" cy="140" r="24" fill="#FFFFFF" fill-opacity="0.38"/>

  <rect x="210" y="112" width="540" height="320" rx="24" fill="url(#card)"/>
  <rect x="242" y="150" width="210" height="14" rx="7" fill="#94A3B8"/>
  <rect x="242" y="177" width="126" height="11" rx="5.5" fill="#CBD5E1"/>

  <rect x="242" y="220" width="220" height="168" rx="16" fill="#F8FAFC"/>
  <rect x="267" y="348" width="24" height="32" rx="8" fill="#1D4ED8"/>
  <rect x="303" y="325" width="24" height="55" rx="8" fill="#0EA5E9"/>
  <rect x="339" y="300" width="24" height="80" rx="8" fill="#0284C7"/>
  <rect x="375" y="286" width="24" height="94" rx="8" fill="#0369A1"/>

  <rect x="500" y="220" width="218" height="76" rx="14" fill="#EFF6FF"/>
  <rect x="523" y="244" width="92" height="11" rx="5.5" fill="#64748B"/>
  <rect x="523" y="262" width="66" height="9" rx="4.5" fill="#94A3B8"/>
  <circle cx="677" cy="258" r="20" fill="#F59E0B"/>

  <rect x="500" y="312" width="218" height="76" rx="14" fill="#EFF6FF"/>
  <rect x="523" y="336" width="104" height="11" rx="5.5" fill="#64748B"/>
  <rect x="523" y="354" width="78" height="9" rx="4.5" fill="#94A3B8"/>
  <circle cx="677" cy="350" r="20" fill="#22C55E"/>
</svg>
